<svg xmlns="http://www.w3.org/2000/svg" width="16" height="16" viewBox="0 0 16 16">
  <!-- Edit, after SF Symbols' square.and.pencil in the Mac app's toolbar. Filled shapes only, since
       GTK draws symbolic icons from fills. -->
  <path d="M7.25 1.5H4.25A2.75 2.75 0 0 0 1.5 4.25v7.5a2.75 2.75 0 0 0 2.75 2.75h7.5a2.75 2.75 0 0 0 2.75-2.75v-3a.75.75 0 0 0-1.5 0v3a1.25 1.25 0 0 1-1.25 1.25h-7.5A1.25 1.25 0 0 1 3 11.75v-7.5A1.25 1.25 0 0 1 4.25 3h3a.75.75 0 0 0 0-1.5z" fill="#241f31"/>
  <path d="M12.44 1.06a1.5 1.5 0 0 1 2.12 2.12l-5.6 5.6-2.83.71.71-2.83z" fill="#241f31"/>
</svg>
